# AST/ASF file generated using VICON BodyLanguage
# -----------------------------------------------
:version 1.10
:name VICON
:units
  mass 1.0
  length 0.45
  angle deg
:documentation
   .ast/.asf automatically generated from VICON data using
   VICON BodyBuilder and BodyLanguage model FoxedUp or BRILLIANT.MOD
:root
   order TX TY TZ RX RY RZ
   axis XYZ
   position 0 0 0  
   orientation 0 0 0 
:bonedata
  begin
     id 1 
     name lhipjoint
     direction 0.630305 -0.712092 0.309259 
     length 2.29033 
     axis 0 0 0  XYZ
  end
  begin
     id 2 
     name lfemur
     direction 0.34202 -0.939693 0  
     length 6.43538  
     axis 0 0 20  XYZ
    dof rx ry rz
    limits (-160.0 20.0)
           (-70.0 70.0)
           (-60.0 70.0)
  end
  begin
     id 3 
     name ltibia
     direction 0.34202 -0.939693 0   
     length 7.43097   
     axis 0 0 20   XYZ
    dof rx
    limits (-10.0 170.0)
  end
  begin
     id 4 
     name lfoot
     direction 0.0334653 -0.0919451 0.995202   
     length 1.78438   
     axis -90 7.62852e-016 20   XYZ
    dof rx rz
    limits (-45.0 90.0)
           (-70.0 20.0)
  end
  begin
     id 5 
     name ltoes
     direction 1.53535e-011 -4.21933e-011 1   
     length 0.90832   
     axis -90 7.62852e-016 20   XYZ
    dof rx
    limits (-90.0 20.0)
  end
  begin
     id 6 
     name rhipjoint
     direction -0.682059 -0.67077 0.291312   
     length 2.43143  
     axis 0 0 0  XYZ 
  end
  begin
     id 7 
     name rfemur
     direction -0.34202 -0.939693 0   
     length 6.63488   
     axis 0 0 -20   XYZ
    dof rx ry rz
    limits (-160.0 20.0)
           (-70.0 70.0)
           (-70.0 60.0)
  end
  begin
     id 8 
     name rtibia
     direction -0.34202 -0.939693 0   
     length 6.86532   
     axis 0 0 -20   XYZ
    dof rx
    limits (-10.0 170.0)
 end
 begin
     id 9 
     name rfoot
     direction -0.105199 -0.289033 0.951521   
     length 1.77126  
     axis -90 -7.62852e-016 -20   XYZ
    dof rx rz
    limits (-45.0 90.0)
           (-20.0 70.0)
  end
  begin
     id 10 
     name rtoes
     direction -1.53551e-011 -4.21978e-011 1   
     length 0.889273   
     axis -90 -7.62852e-016 -20   XYZ
    dof rx
    limits (-90.0 20.0)
  end
  begin
     id 11 
     name lowerback
     direction -0.0514305 0.998089 0.034245   
     length 2.02077   
     axis 0 0 0   XYZ
    dof rx ry rz
    limits (-20.0 45.0)
           (-30.0 30.0)
           (-30.0 30.0)
  end
  begin
     id 12 
     name upperback
     direction 0.0203189 0.999449 -0.0262315   
     length 2.01413   
     axis 0 0 0   XYZ
    dof rx ry rz
    limits (-20.0 45.0)
           (-30.0 30.0)
           (-30.0 30.0)
  end
  begin
     id 13 
     name thorax
     direction 0.0452736 0.998142 -0.0407729   
     length 2.02986   
     axis 0 0 0   XYZ
    dof rx ry rz
    limits (-20.0 45.0)
           (-30.0 30.0)
           (-30.0 30.0)
  end
  begin
     id 14 
     name lowerneck
     direction -0.0180464 0.999645 -0.0195774   
     length 1.59034   
     axis 0 0 0   XYZ
    dof rx ry rz
    limits (-20.0 45.0)
           (-30.0 30.0)
           (-30.0 30.0)
  end
  begin
     id 15 
     name upperneck
     direction 0.0732272 0.979935 -0.18538   
     length 1.57486   
     axis 0 0 0   XYZ
    dof rx ry rz
    limits (-20.0 45.0)
           (-30.0 30.0)
           (-30.0 30.0)
  end
  begin
     id 16
     name head
     direction 0.0252963 0.997909 -0.059472  
     length 1.60334  
     axis 0 0 0   XYZ
    dof rx ry rz
    limits (-20.0 45.0)
           (-30.0 30.0)
           (-30.0 30.0)
  end
  begin
     id 17 
     name lclavicle
     direction 0.943819 0.330449 0.00315172  
     length 3.50322  
     axis 0 0 0   XYZ
    dof ry rz
    limits (-20.0 10.0)
           (0.0 20.0)
  end
  begin
     id 18 
     name lhumerus
     direction 1 -4.48949e-011 2.22502e-028   
     length 4.63208   
     axis 180 -30 -90   XYZ
    dof rx ry rz
    limits (-60.0 90.0)
           (-90.0 90.0)
           (-90.0 90.0)
  end
  begin
     id 19
     name lradius
     direction 1 -4.48967e-011 -4.10197e-027   
     length 3.41924   
     axis 180 -30 -90   XYZ
    dof rx
    limits (-10.0 170.0)
  end
  begin
     id 20
     name lwrist
     direction 1 -4.48987e-011 -1.24264e-027   
     length 1.70962   
     axis 2.50585e-015 90 90   XYZ
    dof ry
    limits (-180.0 0.0)
 end
  begin
     id 21 
     name lhand
     direction 1 -4.48983e-011 -2.48528e-027   
     length 0.62537   
     axis 1.58582e-015 90 90   XYZ
    dof rx rz
    limits (-90.0 90.0)
           (-45.0 45.0)
  end
  begin
     id 22 
     name lfingers
     direction 1 -4.48896e-011 -4.97056e-027   
     length 0.50419   
     axis 3.17164e-015 90 90   XYZ
    dof rx
    limits (0.0 90.0)
  end
  begin
     id 23
     name lthumb
     direction 0.707107 -6.34803e-011 0.707107   
     length 0.723919   
     axis -90 45 2.85299e-015   XYZ
    dof rx rz
    limits (-45.0 45.0)
           (-45.0 45.0)
  end
  begin
     id 24 
     name rclavicle
     direction -0.964499 0.260664 -0.0423695   
     length 3.91997  
     axis 0 0 0   XYZ 
    dof ry rz
    limits (-10.0 20.0)
           (-20.0 0.0)
  end
  begin
     id 25 
     name rhumerus
     direction -1 -4.48957e-011 -1.98656e-027  
     length 4.4064   
     axis 180 30 90   XYZ
    dof rx ry rz
    limits (-90.0 60.0)
           (-90.0 90.0)
           (-90.0 90.0)
  end
  begin
     id 26 
     name rradius
     direction -1 -4.48968e-011 1.96972e-027   
     length 3.44675   
     axis 180 30 90   XYZ
    dof rx
    limits (-10.0 170.0)
  end
  begin
     id 27 
     name rwrist
     direction -1 -4.48974e-011 -1.24264e-027   
     length 1.72338   
     axis 2.50585e-015 -90 -90   XYZ
    dof ry
    limits (-180.0 0.0)
  end
  begin
     id 28
     name rhand
     direction -1 -4.48901e-011 -2.48528e-027   
     length 0.513674   
     axis 1.58582e-015 -90 -90   XYZ
    dof rx rz
    limits (-90.0 90.0)
           (-45.0 45.0)
  end
  begin
     id 29
     name rfingers
     direction -1 -4.48946e-011 -4.97056e-027   
     length 0.414137   
     axis 3.17164e-015 -90 -90   XYZ
    dof rx
    limits (0.0 90.0)
  end
  begin
     id 30
     name rthumb
     direction -0.707107 -6.34859e-011 0.707107   
     length 0.59462   
     axis -90 -45 -2.85299e-015   XYZ
    dof rx rz
    limits (-45.0 45.0)
           (-45.0 45.0)
  end
:hierarchy
  begin
    root lhipjoint rhipjoint lowerback
    lhipjoint lfemur
    lfemur ltibia
    ltibia lfoot
    lfoot ltoes
    rhipjoint rfemur
    rfemur rtibia
    rtibia rfoot
    rfoot rtoes
    lowerback upperback
    upperback thorax
    thorax lowerneck lclavicle rclavicle
    lowerneck upperneck
    upperneck head
    lclavicle lhumerus
    lhumerus lradius
    lradius lwrist
    lwrist lhand lthumb
    lhand lfingers
    rclavicle rhumerus
    rhumerus rradius
    rradius rwrist
    rwrist rhand rthumb
    rhand rfingers
  end

#!OML:ASF E:\inclinewalkrobotboard\Project 1\Capture day 1\Session 1\subject1.ASF
:FULLY-SPECIFIED
:DEGREES
127
root 9.82162 12.7049 -8.71458 0.973311 3.39946 3.54992
lowerback 13.3107 1.23463 -5.85158
upperback 8.9336 1.0442 1.22361
thorax 1.86573 0.249911 4.45901
lowerneck -8.79684 0.472555 -1.82752
upperneck 28.0392 0.636584 1.57398
head 10.3745 0.296503 0.950726
rclavicle 9.74045e-015 -2.78299e-015
rhumerus 49.3678 25.1067 -11.5932
rradius 57.5777
rwrist 3.80481
rhand -26.4312 -27.1697
rfingers 7.12502
rthumb 0.129308 -57.1494
lclavicle 9.74045e-015 -2.78299e-015
lhumerus 55.4 -24.7771 14.801
lradius 51.4181
lwrist -21.2848
lhand -41.9646 -34.3858
lfingers 7.12502
lthumb -14.861 -4.9388
rfemur -42.7156 -6.56714 13.1886
rtibia 0
rfoot 0 0
rtoes 0
lfemur -45.868 -2.54473 -17.0721
ltibia 0
lfoot 0 0
ltoes 0
128
root 9.81616 12.7076 -8.72041 0.949515 3.37485 3.28689
lowerback 13.3993 1.22769 -5.62546
upperback 8.9024 1.05195 1.30614
thorax 1.78282 0.264196 4.41597
lowerneck -8.64122 0.488492 -1.83169
upperneck 27.8596 0.678534 1.49668
head 10.2773 0.307049 0.925932
rclavicle 7.55382e-015 -1.59028e-015
rhumerus 49.6909 25.1466 -11.2026
rradius 57.4669
rwrist 3.79279
rhand -26.2073 -27.3066
rfingers 7.12502
rthumb 0.345507 -57.2861
lclavicle 7.55382e-015 -1.59028e-015
lhumerus 55.5189 -24.8412 14.6476
lradius 51.3028
lwrist -21.2236
lhand -41.9821 -34.5451
lfingers 7.12502
lthumb -14.8779 -5.09936
rfemur -42.7097 -6.44833 13.5381
rtibia 0
rfoot 0 0
rtoes 0
lfemur -45.9398 -2.41214 -16.7394
ltibia 0
lfoot 0 0
ltoes 0
129
root 9.81104 12.708 -8.72082 0.797476 3.35775 2.92213
lowerback 13.5111 1.21902 -5.30931
upperback 8.93603 1.06768 1.421
thorax 1.75597 0.282103 4.35532
lowerneck -8.52959 0.492568 -1.75409
upperneck 27.6751 0.710137 1.33853
head 10.1883 0.312454 0.857605
rclavicle -5.76476e-015 -7.95139e-016
rhumerus 49.7704 25.2243 -11.1057
rradius 57.3866
rwrist 4.09089
rhand -26.0873 -27.3758
rfingers 7.12502
rthumb 0.461446 -57.3551
lclavicle -5.76476e-015 -7.95139e-016
lhumerus 55.6242 -24.9068 14.4586
lradius 51.2178
lwrist -21.0737
lhand -42.1277 -34.8209
lfingers 7.12502
lthumb -15.0182 -5.38552
rfemur -42.4942 -6.29625 13.9762
rtibia 0
rfoot 0 0
rtoes 0
lfemur -45.8293 -2.28028 -16.2947
ltibia 0
lfoot 0 0
ltoes 0
130
root 9.81021 12.7087 -8.71717 0.679584 3.39246 2.76327
lowerback 13.4916 1.17544 -5.11732
upperback 9.03309 1.03351 1.44468
thorax 1.874 0.266993 4.27667
lowerneck -8.51073 0.517923 -1.67663
upperneck 27.4641 0.744812 1.28274
head 10.1073 0.330528 0.826257
rclavicle 3.77691e-015 -1.47101e-014
rhumerus 49.6541 25.2835 -11.3936
rradius 57.2898
rwrist 4.79868
rhand -26.0405 -27.5599
rfingers 7.12502
rthumb 0.506654 -57.539
lclavicle 3.77691e-015 -1.47101e-014
lhumerus 55.6713 -24.8564 14.3197
lradius 51.1854
lwrist -21.0658
lhand -42.2661 -35.1279
lfingers 7.12502
lthumb -15.1515 -5.7026
rfemur -42.2899 -6.27992 14.1416
rtibia 0
rfoot 0 0
rtoes 0
lfemur -45.6802 -2.28562 -16.1142
ltibia 0
lfoot 0 0
ltoes 0
131
root 9.81049 12.7152 -8.72293 0.7291 3.42361 2.89064
lowerback 13.5404 1.16663 -5.16308
upperback 9.00365 1.01416 1.37207
thorax 1.81943 0.259638 4.22754
lowerneck -8.45656 0.565328 -1.60395
upperneck 27.2435 0.799251 1.27196
head 10.0156 0.362276 0.813531
rclavicle -7.95139e-016 -1.07344e-014
rhumerus 49.5684 25.2975 -11.6652
rradius 57.2487
rwrist 4.81689
rhand -26.1091 -27.5461
rfingers 7.12502
rthumb 0.440388 -57.5254
lclavicle -7.95139e-016 -1.07344e-014
lhumerus 55.7752 -24.8887 14.1632
lradius 51.1383
lwrist -21.2204
lhand -42.3139 -35.1635
lfingers 7.12502
lthumb -15.1975 -5.74163
rfemur -42.3716 -6.33319 13.9983
rtibia 0
rfoot 0 0
rtoes 0
lfemur -45.7346 -2.37488 -16.2592
ltibia 0
lfoot 0 0
ltoes 0
132
root 9.81001 12.7206 -8.72569 0.748965 3.44634 3.06442
lowerback 13.5879 1.18529 -5.31351
upperback 8.97671 1.01996 1.32833
thorax 1.76521 0.259622 4.26526
lowerneck -8.32802 0.594027 -1.59774
upperneck 26.9943 0.840376 1.25703
head 9.89959 0.381071 0.808663
rclavicle 1.23246e-014 -2.38542e-015
rhumerus 49.545 25.2194 -11.8289
rradius 57.2857
rwrist 4.15146
rhand -26.32 -27.125
rfingers 7.12502
rthumb 0.236722 -57.1046
lclavicle 1.23246e-014 -2.38542e-015
lhumerus 55.9619 -24.9729 13.9292
lradius 51.017
lwrist -21.3492
lhand -42.3332 -35.0097
lfingers 7.12502
lthumb -15.2161 -5.58926
rfemur -42.3751 -6.38908 13.7935
rtibia 0
rfoot 0 0
rtoes 0
lfemur -45.7135 -2.46308 -16.462
ltibia 0
lfoot 0 0
ltoes 0
133
root 9.80835 12.7218 -8.72813 0.738965 3.39378 3.00811
lowerback 13.5503 1.21107 -5.28745
upperback 9.02787 1.05957 1.36165
thorax 1.83516 0.276458 4.28167
lowerneck -9.40598 0.2903 -1.79708
upperneck 27.1783 0.338424 1.74039
head 10.182 0.184643 0.965432
rclavicle -2.98177e-015 1.35174e-014
rhumerus 49.5752 25.0945 -11.8674
rradius 57.2806
rwrist 3.83458
rhand -26.3866 -26.8766
rfingers 7.12502
rthumb 0.172378 -56.8563
lclavicle -2.98177e-015 1.35174e-014
lhumerus 56.2776 -24.9763 13.5511
lradius 50.8337
lwrist -21.3569
lhand -42.5284 -34.7552
lfingers 7.12502
lthumb -15.4042 -5.34911
rfemur -42.3635 -6.31096 13.8649
rtibia 0
rfoot 0 0
rtoes 0
lfemur -45.7067 -2.40146 -16.3929
ltibia 0
lfoot 0 0
ltoes 0
134
root 9.80849 12.7243 -8.72852 0.775243 3.3574 3.04386
lowerback 13.4983 1.23673 -5.32005
upperback 9.0379 1.09288 1.36507
thorax 1.86976 0.290434 4.30036
lowerneck -9.2301 0.332411 -1.72755
upperneck 26.9375 0.42438 1.58295
head 10.059 0.213852 0.904435
rclavicle -5.36719e-015 -5.1684e-015
rhumerus 49.5575 25.0719 -11.8485
rradius 57.2644
rwrist 3.83698
rhand -26.3781 -26.8545
rfingers 7.12502
rthumb 0.180561 -56.8342
lclavicle -5.36719e-015 -5.1684e-015
lhumerus 56.5719 -25.0127 13.209
lradius 50.699
lwrist -21.3203
lhand -42.8554 -34.4305
lfingers 7.12502
lthumb -15.7191 -5.04892
rfemur -42.4005 -6.28843 13.8213
rtibia 0
rfoot 0 0
rtoes 0
lfemur -45.7281 -2.40625 -16.4316
ltibia 0
lfoot 0 0
ltoes 0
135
root 9.8086 12.7285 -8.72919 0.792281 3.35327 3.05654
lowerback 13.456 1.2523 -5.31173
upperback 9.05869 1.11703 1.36844
thorax 1.9118 0.30118 4.29694
lowerneck -9.16311 0.343223 -1.63043
upperneck 26.636 0.448569 1.47562
head 9.9368 0.223396 0.84969
rclavicle -3.37934e-015 5.1684e-015
rhumerus 49.4768 25.0451 -11.9472
rradius 57.2445
rwrist 3.94419
rhand -26.3632 -26.8149
rfingers 7.12502
rthumb 0.194965 -56.7946
lclavicle -3.37934e-015 5.1684e-015
lhumerus 56.7785 -25.0096 12.9915
lradius 50.6322
lwrist -21.2591
lhand -42.9586 -34.4225
lfingers 7.12502
lthumb -15.8185 -5.0488
rfemur -42.3797 -6.2827 13.8041
rtibia 0
rfoot 0 0
rtoes 0
lfemur -45.7118 -2.44986 -16.4425
ltibia 0
lfoot 0 0
ltoes 0
136
root 9.80748 12.7308 -8.72996 0.771243 3.33936 2.91975
lowerback 13.4215 1.2513 -5.17723
upperback 9.09858 1.13216 1.40431
thorax 1.97088 0.310992 4.25754
lowerneck -9.20966 0.329008 -1.53351
upperneck 26.3162 0.407651 1.48581
head 9.83118 0.215691 0.829554
rclavicle 5.96354e-016 9.93923e-015
rhumerus 49.4226 25.0055 -12.0625
rradius 57.2243
rwrist 4.10016
rhand -26.3176 -26.7613
rfingers 7.12502
rthumb 0.239043 -56.7409
lclavicle 5.96354e-016 9.93923e-015
lhumerus 56.8875 -24.9713 12.9253
lradius 50.55
lwrist -21.2909
lhand -42.8549 -35.1094
lfingers 7.12502
lthumb -15.7187 -5.72781
rfemur -42.3405 -6.22407 13.9667
rtibia 0
rfoot 0 0
rtoes 0
lfemur -45.662 -2.41825 -16.2755
ltibia 0
lfoot 0 0
ltoes 0
137
root 9.80664 12.7315 -8.72873 0.772581 3.34388 2.83916
lowerback 13.3736 1.24791 -5.07636
upperback 9.10594 1.14069 1.41643
thorax 2.00325 0.31828 4.21275
lowerneck -9.05376 0.358642 -1.49305
upperneck 26.0497 0.444627 1.46809
head 9.70498 0.234908 0.817503
rclavicle 7.95139e-015 -5.1684e-015
rhumerus 49.5069 25.0016 -11.8925
rradius 57.1821
rwrist 4.16004
rhand -26.2121 -26.6706
rfingers 7.12502
rthumb 0.340918 -56.6501
lclavicle 7.95139e-015 -5.1684e-015
lhumerus 56.924 -24.9712 13.0586
lradius 50.4072
lwrist -21.626
lhand -42.7495 -35.8143
lfingers 7.12502
lthumb -15.6171 -6.42472
rfemur -42.3545 -6.22034 14.0705
rtibia 0
rfoot 0 0
rtoes 0
lfemur -45.6309 -2.39967 -16.172
ltibia 0
lfoot 0 0
ltoes 0
